<?xml version="1.0" encoding="UTF-8" standalone="no"?>
<!DOCTYPE svg PUBLIC "-//W3C//DTD SVG 1.1//EN" "http://www.w3.org/Graphics/SVG/1.1/DTD/svg11.dtd">
<svg width="100%" height="100%" viewBox="0 0 130 35" version="1.1" xmlns="http://www.w3.org/2000/svg" xmlns:xlink="http://www.w3.org/1999/xlink" xml:space="preserve" xmlns:serif="http://www.serif.com/" style="fill-rule:evenodd;clip-rule:evenodd;stroke-linejoin:round;stroke-miterlimit:2;">
    <g>
        <g>
            <g>
                <path d="M0,10L14.141,19.999L14.141,34.14L0,24.141L0,10Z" style="fill:rgb(36,136,138);fill-rule:nonzero;"/>
            </g>
            <g>
                <path d="M0,10L14.142,0L28.283,9.999L14.141,19.999L0,10Z" style="fill:rgb(52,199,201);fill-rule:nonzero;"/>
            </g>
            <g>
                <path d="M14.141,19.999L28.283,9.999L28.283,24.14L14.141,34.14L14.141,19.999Z" style="fill:rgb(20,76,77);fill-rule:nonzero;"/>
            </g>
        </g>
    </g>
    <g>
        <path d="M44.845,20.387C44.845,22.471 43.421,24.788 39.595,24.788C37.32,24.788 34.961,23.767 34.238,21.429L36.343,20.771C36.555,21.747 37.66,22.789 39.638,22.789C41.254,22.789 42.677,22.088 42.677,20.558C42.677,18.538 40.87,18.453 38.511,17.879C35.514,17.157 34.834,15.584 34.834,13.649C34.834,11.141 36.98,9.377 39.744,9.377C41.869,9.377 43.633,10.525 44.25,12.586L42.167,13.097C41.869,12.204 41.104,11.354 39.531,11.354C38.107,11.354 36.959,12.225 36.959,13.649C36.959,15.541 38.766,15.838 40.658,16.264C43.548,16.944 44.845,17.986 44.845,20.387Z" style="fill:white;fill-rule:nonzero;"/>
        <path d="M46.743,10.715C46.743,10.121 47.232,9.611 47.848,9.611C48.465,9.611 48.954,10.122 48.954,10.715C48.954,11.333 48.465,11.821 47.848,11.821C47.232,11.821 46.743,11.333 46.743,10.715ZM46.871,13.734L48.826,13.734L48.826,24.512L46.871,24.512L46.871,13.734Z" style="fill:white;fill-rule:nonzero;"/>
        <path d="M66.748,17.391L66.748,24.511L64.813,24.511L64.813,17.963C64.813,16.433 64.07,15.306 62.496,15.306C60.987,15.306 60.137,16.582 60.137,17.963L60.137,24.511L58.203,24.511L58.203,17.963C58.203,16.433 57.459,15.306 55.907,15.306C54.376,15.306 53.526,16.582 53.526,17.963L53.526,24.511L51.592,24.511L51.592,13.734L53.526,13.734L53.526,15.01C54.121,14.16 55.056,13.48 56.416,13.48C57.713,13.48 58.861,14.16 59.519,15.223C60.199,14.266 61.348,13.48 62.963,13.48C65.005,13.479 66.748,15.117 66.748,17.391Z" style="fill:white;fill-rule:nonzero;"/>
        <path d="M80.744,19.134C80.744,21.96 78.746,24.788 75.387,24.788C73.516,24.788 72.262,24.023 71.455,23.002L71.455,28.613L69.52,28.613L69.52,13.733L71.454,13.733L71.454,15.242C72.261,14.243 73.515,13.478 75.386,13.478C78.746,13.479 80.744,16.306 80.744,19.134ZM78.766,19.134C78.766,16.965 77.406,15.307 75.195,15.307C72.814,15.307 71.454,17.008 71.454,19.134C71.454,21.26 72.814,22.938 75.195,22.938C77.406,22.938 78.766,21.303 78.766,19.134Z" style="fill:white;fill-rule:nonzero;"/>
        <rect x="82.876" y="9.632" width="1.934" height="14.88" style="fill:white;fill-rule:nonzero;"/>
        <path d="M97.566,19.963L89,19.963C89.298,21.727 90.616,22.938 92.72,22.938C93.889,22.938 94.952,22.491 95.546,21.726L97.141,22.747C96.184,24.043 94.611,24.788 92.72,24.788C89.149,24.788 86.938,22.237 86.938,19.134C86.938,16.031 89.233,13.48 92.4,13.48C95.334,13.479 98.076,15.946 97.566,19.963ZM95.61,18.305C95.355,16.477 94.229,15.307 92.4,15.307C90.551,15.307 89.297,16.519 88.999,18.305L95.61,18.305Z" style="fill:white;fill-rule:nonzero;"/>
        <path d="M112.303,9.632L106.756,24.512L104.354,24.512L98.806,9.632L101.102,9.632L105.545,22.237L110.009,9.632L112.303,9.632Z" style="fill:white;fill-rule:nonzero;"/>
        <path d="M129.487,9.632L129.487,24.512L127.362,24.512L127.362,13.564L122.239,21.11L121.474,21.11L116.351,13.564L116.351,24.511L114.226,24.511L114.226,9.632L116.351,9.632L121.857,17.815L127.363,9.632L129.487,9.632Z" style="fill:white;fill-rule:nonzero;"/>
    </g>
    <path d="M21.212,17.07L8.966,10L8.966,24.14L21.212,17.07Z" style="fill:white;fill-rule:nonzero;"/>
</svg>
