<?xml version="1.0" encoding="utf-8"?>
<!-- Generator: Adobe Illustrator 27.1.0, SVG Export Plug-In . SVG Version: 6.00 Build 0)  -->
<svg version="1.1" id="Ebene_1" xmlns="http://www.w3.org/2000/svg" xmlns:xlink="http://www.w3.org/1999/xlink" x="0px" y="0px"
	 viewBox="0 0 129.487 34.14" style="enable-background:new 0 0 129.487 34.14;" xml:space="preserve">
<style type="text/css">
	.st0{enable-background:new    ;}
	.st1{fill:#24888A;}
	.st2{fill:#34C7C9;}
	.st3{fill:#144C4D;}
	.st4{fill:#FFFFFF;}
</style>
<g>
	<g class="st0">
		<g>
			<polygon class="st1" points="0,10 14.141,19.999 14.141,34.14 0,24.141 			"/>
		</g>
		<g>
			<polygon class="st2" points="0,10 14.142,0 28.283,9.999 14.141,19.999 			"/>
		</g>
		<g>
			<polygon class="st3" points="14.141,19.999 28.283,9.999 28.283,24.14 14.141,34.14 			"/>
		</g>
	</g>
</g>
<g>
	<path class="st1" d="M44.845,20.387c0,2.084-1.424,4.401-5.25,4.401c-2.275,0-4.634-1.021-5.357-3.359l2.105-0.658
		c0.212,0.976,1.317,2.018,3.295,2.018c1.616,0,3.039-0.701,3.039-2.231c0-2.02-1.807-2.105-4.166-2.679
		c-2.997-0.722-3.677-2.295-3.677-4.23c0-2.508,2.146-4.272,4.91-4.272c2.125,0,3.889,1.148,4.506,3.209l-2.083,0.511
		c-0.298-0.893-1.063-1.743-2.636-1.743c-1.424,0-2.572,0.871-2.572,2.295c0,1.892,1.807,2.189,3.699,2.615
		C43.548,16.944,44.845,17.986,44.845,20.387z"/>
	<path class="st1" d="M46.743,10.715c0-0.594,0.489-1.104,1.105-1.104c0.617,0,1.106,0.511,1.106,1.104
		c0,0.618-0.489,1.106-1.106,1.106C47.232,11.821,46.743,11.333,46.743,10.715z M46.871,13.734h1.955v10.778h-1.955V13.734z"/>
	<path class="st1" d="M66.748,17.391v7.12h-1.935v-6.548c0-1.53-0.743-2.657-2.317-2.657c-1.509,0-2.359,1.276-2.359,2.657v6.548
		h-1.934v-6.548c0-1.53-0.744-2.657-2.296-2.657c-1.531,0-2.381,1.276-2.381,2.657v6.548h-1.934V13.734h1.934v1.276
		c0.595-0.85,1.53-1.53,2.89-1.53c1.297,0,2.445,0.68,3.103,1.743c0.68-0.957,1.829-1.743,3.444-1.743
		C65.005,13.479,66.748,15.117,66.748,17.391z"/>
	<path class="st1" d="M80.744,19.134c0,2.826-1.998,5.654-5.357,5.654c-1.871,0-3.125-0.765-3.932-1.786v5.611H69.52v-14.88h1.934
		v1.509c0.807-0.999,2.061-1.764,3.932-1.764C78.746,13.479,80.744,16.306,80.744,19.134z M78.766,19.134
		c0-2.169-1.36-3.827-3.571-3.827c-2.381,0-3.741,1.701-3.741,3.827s1.36,3.804,3.741,3.804
		C77.406,22.938,78.766,21.303,78.766,19.134z"/>
	<path class="st1" d="M84.81,9.632v14.88h-1.934V9.632H84.81z"/>
	<path class="st1" d="M97.566,19.963H89c0.298,1.764,1.616,2.975,3.72,2.975c1.169,0,2.232-0.447,2.826-1.212l1.595,1.021
		c-0.957,1.296-2.53,2.041-4.421,2.041c-3.571,0-5.782-2.551-5.782-5.654s2.295-5.654,5.462-5.654
		C95.334,13.479,98.076,15.946,97.566,19.963z M95.61,18.305c-0.255-1.828-1.381-2.998-3.21-2.998c-1.849,0-3.103,1.212-3.401,2.998
		H95.61z"/>
	<path class="st1" d="M112.303,9.632l-5.547,14.88h-2.402l-5.548-14.88h2.296l4.443,12.605l4.464-12.605H112.303z"/>
	<path class="st1" d="M129.487,9.632v14.88h-2.125V13.564l-5.123,7.546h-0.765l-5.123-7.546v10.947h-2.125V9.632h2.125l5.506,8.183
		l5.506-8.183H129.487z"/>
</g>
<polygon class="st4" points="21.212,17.07 8.966,10 8.966,24.14 "/>
</svg>
